<svg viewBox="0 0 920 200" xmlns="http://www.w3.org/2000/svg"><rect width="920" height="200" rx="16" fill="#ffffff"/><line x1="58" y1="28" x2="58" y2="172" stroke="#93aac2" stroke-width="1"/><line x1="58" y1="172" x2="902" y2="172" stroke="#93aac2" stroke-width="1"/><text x="52" y="38" text-anchor="end" font-size="10" fill="#587086">0.2420</text><text x="52" y="172" text-anchor="end" font-size="10" fill="#587086">0.0000</text><polyline fill="none" stroke="#7c3aed" stroke-width="1.2" points="58.0,142.2 58.5,148.2 58.9,148.2 59.4,124.4 59.7,142.2 60.2,148.2 60.6,136.3 61.1,142.2 61.6,148.2 62.2,154.1 62.8,154.1 63.2,148.2 63.6,160.1 64.0,148.2 64.4,142.2 65.0,136.3 65.7,166.0 66.2,130.3 66.6,148.2 67.1,148.2 67.6,142.2 68.3,148.2 69.1,160.1 69.6,148.2 70.2,154.1 70.8,148.2 71.3,148.2 71.6,154.1 72.0,142.2 72.7,136.3 73.3,142.2 73.9,148.2 74.5,148.2 75.0,154.1 75.7,148.2 76.2,142.2 77.0,160.1 77.4,160.1 78.0,154.1 78.5,160.1 78.9,160.1 79.5,148.2 79.9,154.1 80.4,154.1 80.7,154.1 81.1,142.2 81.3,130.3 81.6,148.2 82.1,154.1 82.6,148.2 82.9,142.2 83.4,136.3 84.0,148.2 84.4,154.1 84.7,142.2 85.0,130.3 85.5,148.2 85.9,160.1 86.3,154.1 86.5,136.3 86.8,160.1 87.1,160.1 87.4,142.2 87.8,148.2 88.3,148.2 88.7,136.3 89.4,142.2 89.8,154.1 90.3,142.2 90.8,148.2 91.3,142.2 91.6,148.2 92.1,148.2 92.6,148.2 93.2,142.2 93.9,142.2 94.4,148.2 94.8,148.2 95.2,148.2 95.5,154.1 95.8,154.1 96.0,148.2 96.3,148.2 96.7,142.2 97.0,142.2 97.4,154.1 97.8,142.2 98.3,160.1 98.7,154.1 99.3,148.2 99.7,148.2 100.2,154.1 100.8,148.2 101.4,154.1 101.8,142.2 102.3,148.2 102.8,148.2 103.2,154.1 103.7,148.2 104.2,154.1 104.7,154.1 105.3,142.2 105.8,142.2 106.3,154.1 106.9,154.1 107.4,148.2 108.0,154.1 108.5,148.2 109.0,148.2 109.4,142.2 109.9,154.1 110.4,154.1 111.0,160.1 111.4,148.2 111.9,160.1 112.5,154.1 113.3,160.1 113.6,154.1 114.0,160.1 114.4,142.2 114.7,148.2 115.2,148.2 115.6,148.2 116.1,142.2 116.5,154.1 116.9,154.1 117.6,154.1 118.1,142.2 118.6,154.1 119.0,148.2 119.7,154.1 120.1,154.1 120.5,154.1 120.8,166.0 121.2,154.1 121.5,142.2 121.9,148.2 122.5,142.2 122.8,148.2 123.0,160.1 123.6,154.1 123.9,166.0 124.5,154.1 125.1,142.2 125.7,160.1 126.2,160.1 126.7,130.3 127.4,154.1 127.9,148.2 128.5,148.2 128.9,154.1 129.4,154.1 130.2,154.1 130.9,160.1 131.4,154.1 131.8,148.2 132.6,148.2 133.1,154.1 133.5,154.1 134.1,160.1 134.8,154.1 135.4,160.1 135.7,154.1 136.3,148.2 136.7,148.2 137.2,160.1 137.7,148.2 138.2,154.1 138.6,154.1 139.0,154.1 139.7,154.1 140.4,154.1 141.1,148.2 141.6,148.2 142.0,148.2 142.3,136.3 142.9,142.2 143.5,136.3 143.8,142.2 144.5,148.2 145.1,142.2 145.5,154.1 146.2,148.2 146.9,154.1 147.9,154.1 148.6,154.1 149.0,148.2 149.5,148.2 149.8,130.3 150.0,136.3 150.4,142.2 151.1,154.1 151.8,124.4 152.6,154.1 153.2,136.3 153.8,154.1 154.2,154.1 154.8,148.2 155.3,136.3 155.9,148.2 156.3,154.1 156.8,154.1 157.6,160.1 158.4,148.2 159.0,160.1 159.8,142.2 160.3,154.1 160.9,136.3 161.4,154.1 161.8,148.2 162.3,166.0 162.9,148.2 163.8,148.2 164.5,154.1 165.1,148.2 165.8,154.1 166.4,142.2 166.8,154.1 167.3,160.1 167.6,154.1 168.0,154.1 168.5,154.1 169.1,160.1 169.6,148.2 170.2,148.2 171.0,148.2 171.4,160.1 172.0,154.1 172.6,160.1 173.2,160.1 173.8,154.1 174.3,160.1 174.7,160.1 175.3,154.1 176.1,154.1 176.7,148.2 177.5,148.2 178.3,154.1 178.8,154.1 179.1,148.2 179.5,148.2 179.8,154.1 180.2,154.1 180.9,154.1 181.7,148.2 182.3,154.1 183.0,148.2 183.7,160.1 184.1,160.1 184.7,148.2 185.3,154.1 185.7,142.2 185.9,148.2 186.5,142.2 187.0,160.1 187.9,142.2 188.6,148.2 189.1,154.1 189.5,142.2 189.7,148.2 190.2,154.1 190.6,154.1 191.3,154.1 191.5,154.1 192.1,136.3 192.6,154.1 193.3,142.2 193.8,142.2 194.1,148.2 194.6,142.2 195.2,136.3 195.4,142.2 195.7,142.2 196.1,142.2 196.5,142.2 196.8,130.3 197.1,154.1 197.6,154.1 198.0,142.2 198.5,148.2 198.7,130.3 199.2,148.2 199.8,142.2 200.5,148.2 200.9,142.2 201.5,148.2 202.2,142.2 202.7,142.2 203.2,142.2 203.8,136.3 204.5,136.3 205.3,154.1 205.6,136.3 206.1,160.1 206.5,154.1 207.1,142.2 207.8,142.2 208.2,142.2 208.5,148.2 209.2,136.3 209.7,142.2 210.1,142.2 210.8,142.2 211.4,148.2 211.7,142.2 212.1,142.2 212.6,124.4 213.0,154.1 213.6,148.2 214.2,148.2 214.8,142.2 215.5,148.2 216.1,136.3 216.5,124.4 217.6,148.2 218.9,148.2 219.8,148.2 221.0,148.2 221.6,154.1 222.2,154.1 222.9,166.0 223.4,136.3 224.0,142.2 224.5,154.1 225.1,154.1 225.7,136.3 226.3,148.2 226.6,160.1 227.0,154.1 227.4,148.2 228.0,148.2 228.7,160.1 229.6,160.1 230.6,154.1 231.8,148.2 233.1,148.2 233.8,136.3 234.5,148.2 235.3,136.3 235.8,148.2 236.0,154.1 236.5,130.3 237.1,148.2 237.7,142.2 238.5,154.1 239.2,154.1 239.6,142.2 240.1,154.1 240.6,154.1 241.3,160.1 242.1,154.1 243.1,148.2 244.2,160.1 244.9,142.2 245.6,160.1 247.3,166.0 248.2,154.1 249.3,154.1 249.9,166.0 250.4,154.1 251.1,142.2 251.8,154.1 252.7,160.1 253.2,154.1 254.0,154.1 254.5,154.1 255.7,160.1 257.5,154.1 258.4,148.2 259.1,148.2 259.4,148.2 259.9,148.2 260.5,148.2 261.1,154.1 261.7,154.1 262.2,148.2 262.9,154.1 263.7,154.1 263.9,154.1 264.1,148.2 264.6,154.1 265.0,148.2 265.5,148.2 266.0,148.2 266.7,148.2 267.3,154.1 268.2,136.3 269.4,136.3 269.9,148.2 270.7,148.2 271.2,148.2 271.7,148.2 272.3,154.1 273.1,142.2 273.7,148.2 274.3,148.2 274.9,130.3 275.8,148.2 276.3,154.1 276.7,154.1 277.6,142.2 278.3,154.1 279.3,154.1 279.7,142.2 280.5,160.1 281.0,154.1 281.7,154.1 282.2,142.2 282.6,160.1 283.0,160.1 283.4,154.1 283.8,154.1 284.4,154.1 285.0,154.1 285.6,148.2 286.3,148.2 287.1,142.2 288.0,160.1 289.1,160.1 290.0,148.2 290.8,154.1 291.5,154.1 292.1,160.1 292.7,154.1 293.3,154.1 294.1,154.1 295.0,154.1 295.5,160.1 296.1,154.1 296.7,154.1 297.3,148.2 298.1,142.2 298.6,154.1 299.4,142.2 300.1,160.1 301.4,154.1 302.1,154.1 302.6,148.2 303.1,148.2 303.6,154.1 304.3,160.1 304.8,154.1 305.6,160.1 306.5,160.1 306.9,142.2 307.8,154.1 308.7,160.1 309.3,160.1 309.7,148.2 310.4,154.1 310.9,160.1 311.7,148.2 312.3,160.1 312.8,154.1 313.6,154.1 314.2,148.2 314.8,160.1 315.4,154.1 316.0,142.2 316.6,148.2 317.2,160.1 317.9,154.1 318.6,160.1 319.1,148.2 319.7,160.1 320.4,148.2 321.0,154.1 321.6,148.2 322.2,148.2 322.8,160.1 323.2,154.1 323.8,142.2 324.7,154.1 325.4,154.1 326.0,136.3 326.5,148.2 326.8,154.1 327.2,142.2 327.7,148.2 328.0,148.2 328.5,148.2 329.0,142.2 329.7,154.1 330.5,148.2 331.2,148.2 331.9,154.1 332.4,154.1 333.1,154.1 333.7,142.2 334.3,148.2 335.1,160.1 335.8,154.1 336.5,154.1 337.1,154.1 337.7,160.1 338.4,154.1 338.7,160.1 339.0,148.2 339.4,148.2 339.9,148.2 340.5,148.2 341.1,148.2 341.8,148.2 342.4,166.0 342.9,142.2 343.6,154.1 344.2,154.1 344.7,160.1 345.3,160.1 345.9,160.1 346.7,136.3 346.9,154.1 347.3,154.1 347.7,154.1 348.3,148.2 348.8,160.1 349.3,148.2 350.2,142.2 351.2,154.1 352.1,160.1 353.0,148.2 353.8,148.2 355.2,160.1 355.9,154.1 356.9,148.2 358.0,148.2 358.8,142.2 359.5,160.1 360.1,154.1 360.8,154.1 361.3,154.1 361.9,154.1 362.9,154.1 363.3,154.1 363.8,148.2 364.4,142.2 365.1,166.0 365.7,160.1 366.5,154.1 367.0,154.1 367.4,154.1 368.2,142.2 369.5,154.1 370.6,154.1 371.2,160.1 372.0,154.1 372.7,160.1 373.5,154.1 374.8,154.1 376.0,160.1 376.6,160.1 377.6,154.1 378.4,160.1 379.2,154.1 379.7,160.1 380.4,142.2 381.0,148.2 381.3,154.1 381.8,154.1 382.6,160.1 383.7,148.2 384.4,142.2 385.3,160.1 385.9,136.3 386.4,160.1 387.0,154.1 387.7,154.1 388.2,148.2 389.1,160.1 389.7,154.1 390.4,154.1 390.9,160.1 391.4,160.1 391.6,160.1 391.8,148.2 392.4,160.1 393.0,148.2 393.9,166.0 394.4,148.2 395.0,160.1 395.7,154.1 396.4,160.1 397.6,148.2 398.5,160.1 399.1,154.1 400.1,160.1 400.9,154.1 401.5,148.2 402.3,166.0 403.2,160.1 403.7,148.2 404.4,148.2 405.0,154.1 405.8,154.1 406.3,148.2 406.8,154.1 407.4,154.1 407.9,160.1 408.8,154.1 409.5,154.1 410.2,154.1 411.3,154.1 412.2,154.1 413.0,154.1 414.6,154.1 415.2,154.1 416.1,160.1 417.1,160.1 418.0,148.2 418.6,148.2 419.4,154.1 419.9,154.1 420.6,160.1 420.8,154.1 421.0,160.1 421.7,160.1 422.4,154.1 423.2,154.1 424.0,154.1 424.8,148.2 425.3,154.1 426.2,160.1 426.7,154.1 427.3,160.1 428.1,148.2 428.7,154.1 429.4,154.1 430.1,154.1 431.2,154.1 432.1,148.2 432.9,154.1 433.9,154.1 434.6,160.1 435.6,154.1 436.4,154.1 437.2,160.1 437.9,154.1 438.5,160.1 439.2,166.0 440.1,160.1 440.7,154.1 441.3,154.1 442.1,154.1 443.1,148.2 444.1,148.2 445.4,148.2 446.5,148.2 446.8,160.1 447.5,154.1 448.2,154.1 449.2,160.1 450.2,160.1 451.2,160.1 452.2,154.1 453.1,154.1 453.7,148.2 454.5,160.1 454.9,160.1 455.5,142.2 456.3,148.2 457.0,148.2 457.5,148.2 458.1,160.1 458.6,160.1 459.7,148.2 460.4,148.2 461.1,154.1 461.7,148.2 462.6,154.1 463.1,148.2 463.5,148.2 464.1,154.1 464.9,142.2 465.7,154.1 466.5,154.1 467.0,136.3 467.9,148.2 468.5,154.1 469.2,160.1 470.0,160.1 470.5,148.2 470.9,154.1 471.5,154.1 472.4,148.2 473.2,154.1 473.8,160.1 474.5,154.1 475.3,154.1 476.3,160.1 477.4,148.2 478.5,160.1 479.4,160.1 480.5,154.1 481.4,160.1 482.3,160.1 482.9,154.1 483.7,160.1 484.3,154.1 485.1,136.3 485.7,154.1 486.4,154.1 487.2,154.1 487.8,160.1 488.8,160.1 489.6,160.1 490.5,166.0 491.5,160.1 492.2,160.1 493.0,160.1 493.7,160.1 494.4,154.1 495.4,154.1 496.2,154.1 497.1,148.2 497.9,142.2 498.6,154.1 499.5,154.1 500.3,154.1 501.0,160.1 501.8,154.1 502.6,148.2 503.4,160.1 504.0,142.2 504.8,154.1 505.7,154.1 506.4,160.1 506.6,136.3 507.3,142.2 508.0,148.2 508.7,142.2 509.3,142.2 509.7,160.1 510.2,136.3 511.2,154.1 512.1,136.3 512.9,160.1 513.8,142.2 514.4,154.1 515.2,166.0 516.0,166.0 516.5,154.1 517.3,154.1 517.7,160.1 518.4,160.1 519.1,154.1 520.0,160.1 520.6,154.1 521.7,154.1 522.7,148.2 523.7,160.1 524.8,166.0 525.5,148.2 526.1,154.1 527.0,142.2 527.7,148.2 528.7,148.2 529.6,160.1 530.3,166.0 531.3,160.1 532.4,160.1 533.3,154.1 534.1,160.1 534.8,160.1 535.6,154.1 536.1,148.2 536.8,166.0 537.9,154.1 538.5,160.1 539.0,142.2 539.6,160.1 540.2,160.1 541.0,148.2 541.3,148.2 542.0,154.1 542.6,154.1 543.4,154.1 544.0,160.1 544.6,154.1 545.1,160.1 545.8,154.1 546.8,160.1 547.4,154.1 548.0,154.1 548.6,160.1 549.2,148.2 549.9,154.1 550.8,148.2 551.5,154.1 552.2,160.1 553.0,154.1 553.6,154.1 554.3,148.2 554.9,154.1 556.2,160.1 557.0,160.1 558.2,148.2 558.5,154.1 559.3,154.1 560.3,154.1 561.2,154.1 561.9,154.1 562.8,148.2 563.7,148.2 564.5,154.1 565.0,160.1 565.8,160.1 566.5,154.1 567.2,160.1 567.8,154.1 568.5,154.1 569.2,148.2 570.0,154.1 571.3,160.1 572.5,166.0 573.0,160.1 573.7,154.1 574.3,160.1 575.1,160.1 575.6,154.1 576.1,154.1 576.6,160.1 577.2,148.2 577.7,148.2 578.5,154.1 579.0,148.2 580.0,154.1 580.5,154.1 581.3,160.1 582.3,160.1 583.2,154.1 584.0,160.1 584.6,160.1 585.3,166.0 586.1,154.1 586.7,154.1 587.2,148.2 587.4,142.2 587.6,160.1 588.0,154.1 588.8,160.1 589.4,154.1 590.0,160.1 590.6,154.1 591.6,154.1 592.0,148.2 592.3,160.1 593.0,148.2 593.6,154.1 594.5,160.1 595.4,148.2 596.0,154.1 596.8,154.1 597.6,160.1 598.0,148.2 598.8,154.1 599.2,160.1 599.8,154.1 600.5,160.1 601.1,154.1 602.3,154.1 603.0,166.0 603.8,154.1 604.7,154.1 605.4,154.1 606.2,160.1 607.0,166.0 607.5,154.1 608.1,160.1 608.8,148.2 609.6,154.1 610.3,166.0 611.2,154.1 612.0,160.1 612.9,154.1 614.1,166.0 614.7,160.1 615.5,160.1 616.5,154.1 617.0,160.1 617.3,154.1 618.0,160.1 618.6,148.2 619.2,154.1 619.8,166.0 620.4,154.1 621.0,154.1 621.8,154.1 622.8,160.1 623.3,160.1 624.1,160.1 624.8,160.1 625.2,160.1 625.8,148.2 626.6,154.1 627.0,160.1 627.7,166.0 628.1,160.1 628.4,160.1 629.0,166.0 629.5,160.1 630.0,160.1 630.5,166.0 631.3,160.1 632.0,160.1 632.9,160.1 633.3,160.1 633.9,154.1 634.4,160.1 635.1,154.1 635.6,160.1 635.9,160.1 636.6,160.1 637.1,154.1 637.8,160.1 638.5,154.1 639.1,160.1 639.8,154.1 640.5,160.1 641.1,154.1 641.8,154.1 642.8,160.1 643.5,160.1 644.2,154.1 644.7,160.1 645.0,148.2 645.6,160.1 646.3,160.1 646.7,160.1 647.1,148.2 647.5,154.1 648.3,154.1 649.0,160.1 649.6,154.1 650.5,166.0 651.2,166.0 652.1,160.1 652.9,160.1 653.9,160.1 654.5,166.0 655.2,160.1 656.3,160.1 657.1,160.1 657.9,160.1 658.5,154.1 659.4,160.1 660.1,154.1 661.2,142.2 662.1,160.1 662.5,142.2 662.9,160.1 663.4,154.1 663.8,154.1 664.4,160.1 665.2,160.1 666.1,154.1 666.7,148.2 667.3,160.1 667.9,154.1 668.7,154.1 669.5,154.1 669.9,154.1 670.7,154.1 671.7,160.1 672.4,154.1 673.5,160.1 674.3,154.1 674.6,154.1 674.8,160.1 675.2,148.2 676.0,154.1 676.6,154.1 677.4,160.1 678.3,154.1 678.7,160.1 679.4,154.1 680.2,154.1 681.0,160.1 681.6,154.1 682.0,160.1 682.6,154.1 683.2,148.2 683.9,154.1 684.6,160.1 685.1,148.2 685.6,154.1 686.4,160.1 686.7,142.2 687.0,148.2 687.4,154.1 688.0,154.1 688.6,160.1 689.4,160.1 690.1,154.1 690.7,148.2 691.6,166.0 692.2,154.1 693.3,154.1 694.1,154.1 694.9,160.1 695.5,160.1 696.4,160.1 697.0,154.1 697.5,154.1 698.1,154.1 698.5,160.1 699.0,154.1 699.7,154.1 700.5,160.1 701.0,154.1 701.8,154.1 702.6,154.1 703.1,154.1 703.7,154.1 704.4,136.3 705.1,160.1 705.8,154.1 706.5,154.1 707.2,154.1 707.8,148.2 708.3,160.1 708.8,160.1 709.5,160.1 710.4,154.1 711.2,160.1 711.8,154.1 712.4,154.1 713.0,154.1 714.0,148.2 714.7,154.1 715.4,154.1 716.0,154.1 716.5,160.1 717.2,148.2 718.2,166.0 719.4,160.1 721.5,160.1 722.8,166.0 723.4,160.1 724.1,160.1 724.7,154.1 725.1,154.1 725.6,166.0 726.3,160.1 726.6,154.1 726.9,154.1 727.2,142.2 727.7,160.1 727.9,160.1 728.5,160.1 729.0,154.1 729.5,160.1 729.8,160.1 730.4,148.2 731.0,160.1 731.6,160.1 732.2,160.1 732.5,160.1 733.0,166.0 733.7,154.1 734.0,148.2 734.5,154.1 734.9,154.1 735.6,160.1 736.1,148.2 736.4,154.1 736.6,148.2 736.9,154.1 737.2,154.1 737.5,160.1 738.1,160.1 738.5,154.1 738.9,148.2 739.3,160.1 739.7,154.1 740.1,154.1 740.7,160.1 741.2,148.2 741.7,154.1 742.2,160.1 742.4,160.1 742.9,160.1 743.3,148.2 743.7,160.1 744.3,160.1 744.8,154.1 745.2,154.1 745.8,154.1 746.3,154.1 746.9,160.1 747.3,160.1 747.8,160.1 748.3,148.2 748.9,160.1 749.4,160.1 750.0,148.2 750.5,160.1 751.1,160.1 751.4,166.0 751.8,160.1 752.1,154.1 752.6,154.1 753.0,160.1 753.6,154.1 754.1,166.0 754.7,160.1 755.3,154.1 756.1,160.1 756.5,154.1 757.2,160.1 758.0,154.1 758.2,160.1 758.5,160.1 758.9,166.0 759.2,154.1 759.7,160.1 760.2,160.1 760.6,160.1 760.9,160.1 761.5,154.1 761.9,160.1 762.3,154.1 762.8,166.0 763.2,166.0 764.0,160.1 764.9,166.0 765.5,160.1 766.0,160.1 766.7,160.1 767.5,154.1 768.0,154.1 768.6,160.1 769.3,148.2 769.7,154.1 770.0,154.1 770.3,154.1 770.6,160.1 770.9,154.1 771.4,160.1 771.7,160.1 772.0,154.1 772.4,160.1 772.8,160.1 773.1,154.1 773.7,154.1 774.0,160.1 774.3,154.1 774.9,154.1 775.3,154.1 775.9,154.1 776.3,160.1 776.8,154.1 777.3,160.1 778.0,160.1 778.4,160.1 778.9,160.1 779.5,154.1 779.8,160.1 780.1,166.0 780.4,154.1 780.5,148.2 780.8,160.1 781.1,160.1 781.5,160.1 781.8,154.1 782.2,160.1 782.5,154.1 782.8,160.1 783.2,160.1 783.6,160.1 784.1,160.1 784.5,160.1 784.8,166.0 785.1,166.0 785.4,154.1 785.9,160.1 786.3,160.1 786.6,160.1 787.0,166.0 787.1,160.1 787.4,160.1 787.7,160.1 788.0,160.1 788.3,160.1 788.7,160.1 789.2,160.1 789.5,154.1 789.7,148.2 790.0,154.1 790.2,154.1 790.5,148.2 790.7,160.1 790.9,154.1 791.0,160.1 791.2,142.2 791.3,136.3 791.4,136.3 791.8,100.6 844.8,154.1 868.1,118.4 887.4,41.1 902.0,64.9"/><line x1="58" y1="154.14876033057774" x2="902" y2="154.14876033057774" stroke="#f59e0b" stroke-width="1" stroke-dasharray="6,4"/><text x="904" y="158.14876033057774" font-size="10" fill="#f59e0b">median</text><text x="58" y="18" font-size="13" font-weight="600" fill="#0f2940">Spread — TSLA — 2024-05-02</text></svg>